{"title":"Land of the Lost.2009.DvDRip.XViD.Swe_Sub.avi","uid":5482089,"size":740341386,"categoryP":"video","categoryS":"movies","magnet":"?xt=urn:btih:58e58529d22377b3884f72b249204735e95bb5ea&amp;dn=Land+of+the+Lost.2009.DvDRip.XViD.Swe_Sub.avi&amp;tr=udp%3A%2F%2Ftracker.openbittorrent.com%3A80&amp;tr=udp%3A%2F%2Fopen.demonii.com%3A1337&amp;tr=udp%3A%2F%2Ftracker.coppersurfer.tk%3A6969&amp;tr=udp%3A%2F%2Fexodus.desync.com%3A6969","seeders":5,"leechers":0,"uploader":"Zen_Bud","files":-1,"time":1270490257,"description":"General\nComplete name                    : Land of the Lost.avi\nFormat                           : AVI\nFile size                        : 706 MiB\nDuration                         : 1h 41mn\nOverall bit rate                 : 971 Kbps\n\nVideo\nID                               : 0\nFormat                           : MPEG-4 Visual)\nCodec ID                         : XVID\nDuration                         : 1h 41mn\nBit rate                         : 830 Kbps\nWidth                            : 720 pixels\nHeight                           : 460 pixels\nDisplay aspect ratio             : 1.855\nResolution                       : 8 bits\nColorimetry                      : 4:2:0\nScan type                        : Progressive\nBits/(Pixel*Frame)               : 0.105\nStream size                      : 604 MiB (85%)\nWriting library                  : XviD 1.1.2 (UTC 2006-11-01)\n\nAudio\nID                               : 1\nFormat                           : MPEG Audio\nMode                             : Joint stereo\nCodec ID                         : 55\nCodec ID/Hint                    : MP3\nDuration                         : 1h 41mn\nBit rate mode                    : Constant\nBit rate                         : 128 Kbps\nChannel(s)                       : 2 channels\nSampling rate                    : 48.0 KHz\nStream size                      : 93.1 MiB (13%)\nAlignment                        : Split accross interleaves\nInterleave, duration             : 24 ms (0.58 video frame)\nWriting library                  : LAME3.98\n\n","torrent":{"xt":"urn:btih:58e58529d22377b3884f72b249204735e95bb5ea","amp;dn":"Land+of+the+Lost.2009.DvDRip.XViD.Swe_Sub.avi","amp;tr":["udp%3A%2F%2Ftracker.openbittorrent.com%3A80","udp%3A%2F%2Fopen.demonii.com%3A1337","udp%3A%2F%2Ftracker.coppersurfer.tk%3A6969","udp%3A%2F%2Fexodus.desync.com%3A6969"],"infoHash":"58e58529d22377b3884f72b249204735e95bb5ea","infoHashBuffer":{"type":"Buffer","data":[88,229,133,41,210,35,119,179,136,79,114,178,73,32,71,53,233,91,181,234]},"announce":[],"urlList":[]}}